<mxfile host="app.diagrams.net" modified="2023-08-28T20:17:32.372Z" agent="Mozilla/5.0 (Macintosh; Intel Mac OS X 10_15_7) AppleWebKit/537.36 (KHTML, like Gecko) Chrome/116.0.0.0 Safari/537.36" etag="LayygAR3_WBrWwxhEfXh" version="21.6.9" type="device">
  <diagram name="Page-1" id="J9n-Jp6WtOL3pzj25OIh">
    <mxGraphModel dx="1194" dy="610" grid="1" gridSize="10" guides="1" tooltips="1" connect="1" arrows="1" fold="1" page="1" pageScale="1" pageWidth="827" pageHeight="1169" math="0" shadow="0">
      <root>
        <mxCell id="0" />
        <mxCell id="1" parent="0" />
        <mxCell id="Z1_986clnx-d414470hs-1" value="" style="rounded=0;whiteSpace=wrap;html=1;" vertex="1" parent="1">
          <mxGeometry x="90" y="130" width="510" height="370" as="geometry" />
        </mxCell>
        <mxCell id="Z1_986clnx-d414470hs-2" value="&lt;h1&gt;Info Feed&lt;/h1&gt;" style="text;html=1;strokeColor=none;fillColor=none;spacing=5;spacingTop=-20;whiteSpace=wrap;overflow=hidden;rounded=0;" vertex="1" parent="1">
          <mxGeometry x="90" y="130" width="190" height="120" as="geometry" />
        </mxCell>
        <mxCell id="Z1_986clnx-d414470hs-3" value="" style="rounded=1;whiteSpace=wrap;html=1;" vertex="1" parent="1">
          <mxGeometry x="100" y="180" width="470" height="60" as="geometry" />
        </mxCell>
        <mxCell id="Z1_986clnx-d414470hs-4" value="SH" style="ellipse;whiteSpace=wrap;html=1;aspect=fixed;" vertex="1" parent="1">
          <mxGeometry x="110" y="187" width="45" height="45" as="geometry" />
        </mxCell>
        <mxCell id="Z1_986clnx-d414470hs-5" value="Text" style="text;html=1;strokeColor=none;fillColor=none;align=center;verticalAlign=middle;whiteSpace=wrap;rounded=0;" vertex="1" parent="1">
          <mxGeometry x="155" y="187" width="60" height="30" as="geometry" />
        </mxCell>
        <mxCell id="Z1_986clnx-d414470hs-6" value="post trimming..." style="text;html=1;strokeColor=none;fillColor=none;align=center;verticalAlign=middle;whiteSpace=wrap;rounded=0;" vertex="1" parent="1">
          <mxGeometry x="155" y="202" width="125" height="30" as="geometry" />
        </mxCell>
        <mxCell id="Z1_986clnx-d414470hs-7" value="Few Minutes ago" style="text;html=1;strokeColor=none;fillColor=none;align=center;verticalAlign=middle;whiteSpace=wrap;rounded=0;" vertex="1" parent="1">
          <mxGeometry x="460" y="187" width="106" height="30" as="geometry" />
        </mxCell>
        <mxCell id="Z1_986clnx-d414470hs-9" value="" style="rounded=1;whiteSpace=wrap;html=1;" vertex="1" parent="1">
          <mxGeometry x="100" y="250" width="470" height="60" as="geometry" />
        </mxCell>
        <mxCell id="Z1_986clnx-d414470hs-10" value="SH" style="ellipse;whiteSpace=wrap;html=1;aspect=fixed;" vertex="1" parent="1">
          <mxGeometry x="110" y="257" width="45" height="45" as="geometry" />
        </mxCell>
        <mxCell id="Z1_986clnx-d414470hs-11" value="Text" style="text;html=1;strokeColor=none;fillColor=none;align=center;verticalAlign=middle;whiteSpace=wrap;rounded=0;" vertex="1" parent="1">
          <mxGeometry x="155" y="257" width="60" height="30" as="geometry" />
        </mxCell>
        <mxCell id="Z1_986clnx-d414470hs-12" value="post trimming..." style="text;html=1;strokeColor=none;fillColor=none;align=center;verticalAlign=middle;whiteSpace=wrap;rounded=0;" vertex="1" parent="1">
          <mxGeometry x="155" y="272" width="125" height="30" as="geometry" />
        </mxCell>
        <mxCell id="Z1_986clnx-d414470hs-13" value="Few Minutes ago" style="text;html=1;strokeColor=none;fillColor=none;align=center;verticalAlign=middle;whiteSpace=wrap;rounded=0;" vertex="1" parent="1">
          <mxGeometry x="460" y="257" width="106" height="30" as="geometry" />
        </mxCell>
        <mxCell id="Z1_986clnx-d414470hs-14" value="" style="rounded=1;whiteSpace=wrap;html=1;" vertex="1" parent="1">
          <mxGeometry x="100" y="320" width="470" height="60" as="geometry" />
        </mxCell>
        <mxCell id="Z1_986clnx-d414470hs-15" value="SH" style="ellipse;whiteSpace=wrap;html=1;aspect=fixed;" vertex="1" parent="1">
          <mxGeometry x="110" y="327" width="45" height="45" as="geometry" />
        </mxCell>
        <mxCell id="Z1_986clnx-d414470hs-16" value="Text" style="text;html=1;strokeColor=none;fillColor=none;align=center;verticalAlign=middle;whiteSpace=wrap;rounded=0;" vertex="1" parent="1">
          <mxGeometry x="155" y="327" width="60" height="30" as="geometry" />
        </mxCell>
        <mxCell id="Z1_986clnx-d414470hs-17" value="post trimming..." style="text;html=1;strokeColor=none;fillColor=none;align=center;verticalAlign=middle;whiteSpace=wrap;rounded=0;" vertex="1" parent="1">
          <mxGeometry x="155" y="342" width="125" height="30" as="geometry" />
        </mxCell>
        <mxCell id="Z1_986clnx-d414470hs-18" value="Few Minutes ago" style="text;html=1;strokeColor=none;fillColor=none;align=center;verticalAlign=middle;whiteSpace=wrap;rounded=0;" vertex="1" parent="1">
          <mxGeometry x="460" y="327" width="106" height="30" as="geometry" />
        </mxCell>
        <mxCell id="Z1_986clnx-d414470hs-19" value="" style="rounded=1;whiteSpace=wrap;html=1;" vertex="1" parent="1">
          <mxGeometry x="100" y="390" width="470" height="60" as="geometry" />
        </mxCell>
        <mxCell id="Z1_986clnx-d414470hs-20" value="SH" style="ellipse;whiteSpace=wrap;html=1;aspect=fixed;" vertex="1" parent="1">
          <mxGeometry x="110" y="397" width="45" height="45" as="geometry" />
        </mxCell>
        <mxCell id="Z1_986clnx-d414470hs-21" value="Text" style="text;html=1;strokeColor=none;fillColor=none;align=center;verticalAlign=middle;whiteSpace=wrap;rounded=0;" vertex="1" parent="1">
          <mxGeometry x="155" y="397" width="60" height="30" as="geometry" />
        </mxCell>
        <mxCell id="Z1_986clnx-d414470hs-22" value="post trimming..." style="text;html=1;strokeColor=none;fillColor=none;align=center;verticalAlign=middle;whiteSpace=wrap;rounded=0;" vertex="1" parent="1">
          <mxGeometry x="155" y="412" width="125" height="30" as="geometry" />
        </mxCell>
        <mxCell id="Z1_986clnx-d414470hs-23" value="Few Minutes ago" style="text;html=1;strokeColor=none;fillColor=none;align=center;verticalAlign=middle;whiteSpace=wrap;rounded=0;" vertex="1" parent="1">
          <mxGeometry x="460" y="397" width="106" height="30" as="geometry" />
        </mxCell>
        <mxCell id="Z1_986clnx-d414470hs-24" value="More..." style="rounded=1;whiteSpace=wrap;html=1;" vertex="1" parent="1">
          <mxGeometry x="294" y="460" width="120" height="30" as="geometry" />
        </mxCell>
        <mxCell id="Z1_986clnx-d414470hs-26" style="edgeStyle=orthogonalEdgeStyle;rounded=0;orthogonalLoop=1;jettySize=auto;html=1;entryX=1;entryY=0.75;entryDx=0;entryDy=0;" edge="1" parent="1" source="Z1_986clnx-d414470hs-25" target="Z1_986clnx-d414470hs-7">
          <mxGeometry relative="1" as="geometry" />
        </mxCell>
        <mxCell id="Z1_986clnx-d414470hs-25" value="InfoCard" style="text;html=1;strokeColor=none;fillColor=none;align=center;verticalAlign=middle;whiteSpace=wrap;rounded=0;" vertex="1" parent="1">
          <mxGeometry x="680" y="180" width="60" height="30" as="geometry" />
        </mxCell>
        <mxCell id="Z1_986clnx-d414470hs-28" value="{&lt;br&gt;&lt;span style=&quot;white-space: pre;&quot;&gt;&#x9;&lt;/span&gt;postId:&quot;&quot;,&lt;br&gt;postContent:&quot;&quot;,&lt;br&gt;authorName:&quot;&quot;,&lt;br&gt;publishedAt:&quot;&quot;&lt;br&gt;}" style="text;html=1;align=center;verticalAlign=middle;resizable=0;points=[];autosize=1;strokeColor=none;fillColor=none;" vertex="1" parent="1">
          <mxGeometry x="110" y="520" width="100" height="100" as="geometry" />
        </mxCell>
      </root>
    </mxGraphModel>
  </diagram>
</mxfile>
